<svg xmlns="http://www.w3.org/2000/svg" viewBox="0 0 400 240">
<circle cx="216.2" cy="213.4" r="1.5" fill="#e4ecff" opacity="0.59"/>
<circle cx="186.8" cy="64.5" r="0.6" fill="#e4ecff" opacity="0.37"/>
<circle cx="138.3" cy="17.3" r="1.5" fill="#e4ecff" opacity="0.56"/>
<circle cx="47.7" cy="159.5" r="0.9" fill="#e4ecff" opacity="0.35"/>
<circle cx="141.0" cy="144.3" r="0.9" fill="#e4ecff" opacity="0.40"/>
<circle cx="55.5" cy="136.4" r="1.4" fill="#e4ecff" opacity="0.40"/>
<circle cx="3.7" cy="118.5" r="0.5" fill="#e4ecff" opacity="0.62"/>
<circle cx="194.4" cy="153.9" r="0.9" fill="#e4ecff" opacity="0.43"/>
<circle cx="372.2" cy="46.5" r="1.6" fill="#e4ecff" opacity="0.91"/>
<circle cx="239.7" cy="216.4" r="1.4" fill="#e4ecff" opacity="0.46"/>
<circle cx="305.8" cy="204.1" r="1.4" fill="#e4ecff" opacity="0.59"/>
<circle cx="97.0" cy="34.1" r="1.5" fill="#e4ecff" opacity="0.75"/>
<circle cx="4.0" cy="51.8" r="0.5" fill="#e4ecff" opacity="0.90"/>
<circle cx="7.8" cy="94.1" r="1.5" fill="#e4ecff" opacity="0.71"/>
<circle cx="118.3" cy="52.3" r="1.5" fill="#e4ecff" opacity="0.42"/>
<circle cx="202.6" cy="69.8" r="1.1" fill="#e4ecff" opacity="0.61"/>
<circle cx="297.6" cy="212.1" r="1.0" fill="#e4ecff" opacity="0.60"/>
<circle cx="229.6" cy="100.0" r="0.9" fill="#e4ecff" opacity="0.61"/>
<circle cx="157.4" cy="185.2" r="1.6" fill="#e4ecff" opacity="0.71"/>
<circle cx="205.4" cy="190.7" r="1.0" fill="#e4ecff" opacity="0.65"/>
<circle cx="77.0" cy="72.3" r="0.6" fill="#e4ecff" opacity="0.82"/>
<circle cx="39.1" cy="37.5" r="1.2" fill="#e4ecff" opacity="0.53"/>
<circle cx="285.9" cy="86.5" r="0.8" fill="#e4ecff" opacity="0.36"/>
<circle cx="374.8" cy="64.9" r="1.4" fill="#e4ecff" opacity="0.54"/>
<circle cx="367.4" cy="143.7" r="0.7" fill="#e4ecff" opacity="0.85"/>
<circle cx="250.9" cy="193.0" r="0.6" fill="#e4ecff" opacity="0.52"/>
<circle cx="332.4" cy="193.8" r="0.7" fill="#e4ecff" opacity="0.57"/>
<circle cx="330.6" cy="87.5" r="1.6" fill="#e4ecff" opacity="0.42"/>
<circle cx="62.5" cy="187.3" r="1.2" fill="#e4ecff" opacity="0.85"/>
<circle cx="48.9" cy="81.0" r="1.6" fill="#e4ecff" opacity="0.93"/>
<circle cx="307.1" cy="27.6" r="1.5" fill="#e4ecff" opacity="0.79"/>
<circle cx="389.5" cy="218.1" r="1.1" fill="#e4ecff" opacity="0.68"/>
<circle cx="316.2" cy="185.5" r="1.5" fill="#e4ecff" opacity="0.57"/>
<circle cx="3.6" cy="130.8" r="1.3" fill="#e4ecff" opacity="0.83"/>
<circle cx="64.3" cy="84.0" r="1.5" fill="#e4ecff" opacity="0.48"/>
<circle cx="358.4" cy="21.0" r="1.2" fill="#e4ecff" opacity="0.60"/>
<circle cx="156.7" cy="108.0" r="0.9" fill="#e4ecff" opacity="0.57"/>
<circle cx="198.1" cy="7.3" r="0.6" fill="#e4ecff" opacity="0.55"/>
<circle cx="192.9" cy="161.3" r="0.7" fill="#e4ecff" opacity="0.78"/>
<circle cx="185.3" cy="14.3" r="1.5" fill="#e4ecff" opacity="0.62"/>
<circle cx="338.5" cy="56.8" r="0.9" fill="#e4ecff" opacity="0.39"/>
<circle cx="123.0" cy="34.0" r="1.1" fill="#e4ecff" opacity="0.89"/>
<circle cx="74.0" cy="1.0" r="1.1" fill="#e4ecff" opacity="0.83"/>
<circle cx="387.4" cy="9.1" r="0.7" fill="#e4ecff" opacity="0.75"/>
<circle cx="72.5" cy="3.4" r="1.5" fill="#e4ecff" opacity="0.40"/>
<circle cx="139.1" cy="51.0" r="0.8" fill="#e4ecff" opacity="0.71"/>
<circle cx="223.9" cy="151.1" r="1.7" fill="#e4ecff" opacity="0.72"/>
<circle cx="224.2" cy="30.7" r="0.6" fill="#e4ecff" opacity="0.72"/>
<circle cx="140.9" cy="11.0" r="1.1" fill="#e4ecff" opacity="0.89"/>
<circle cx="70.8" cy="143.9" r="0.7" fill="#e4ecff" opacity="0.46"/>
<circle cx="248.8" cy="210.1" r="0.9" fill="#e4ecff" opacity="0.58"/>
<circle cx="28.8" cy="2.1" r="1.7" fill="#e4ecff" opacity="0.70"/>
<circle cx="154.9" cy="101.7" r="0.9" fill="#e4ecff" opacity="0.92"/>
<circle cx="180.8" cy="37.7" r="1.3" fill="#e4ecff" opacity="0.55"/>
<circle cx="399.9" cy="46.3" r="0.5" fill="#e4ecff" opacity="0.44"/>
<circle cx="239.8" cy="105.8" r="1.6" fill="#e4ecff" opacity="0.46"/>
<circle cx="394.2" cy="225.3" r="1.3" fill="#e4ecff" opacity="0.59"/>
<circle cx="80.2" cy="198.4" r="1.6" fill="#e4ecff" opacity="0.57"/>
<circle cx="319.5" cy="217.6" r="0.8" fill="#e4ecff" opacity="0.38"/>
<circle cx="342.7" cy="125.1" r="1.1" fill="#e4ecff" opacity="0.54"/>
<circle cx="248.7" cy="32.4" r="1.7" fill="#e4ecff" opacity="0.52"/>
<circle cx="349.2" cy="96.0" r="0.7" fill="#e4ecff" opacity="0.84"/>
<circle cx="169.6" cy="142.2" r="0.7" fill="#e4ecff" opacity="0.71"/>
<circle cx="13.2" cy="152.1" r="1.6" fill="#e4ecff" opacity="0.53"/>
<circle cx="171.0" cy="148.2" r="1.0" fill="#e4ecff" opacity="0.79"/>
<circle cx="24.7" cy="133.6" r="1.3" fill="#e4ecff" opacity="0.45"/>
<circle cx="333.4" cy="214.8" r="1.7" fill="#e4ecff" opacity="0.61"/>
<circle cx="71.4" cy="24.2" r="0.5" fill="#e4ecff" opacity="0.82"/>
<circle cx="372.8" cy="135.5" r="1.4" fill="#e4ecff" opacity="0.54"/>
<circle cx="223.7" cy="84.3" r="0.5" fill="#e4ecff" opacity="0.47"/>
<path d="M150.8 122.7 v8 M146.8 126.7 h8" stroke="#e4ecff" stroke-width="1.4" stroke-linecap="round" opacity="0.8"/>
<path d="M273.3 9.7 v8 M269.3 13.7 h8" stroke="#e4ecff" stroke-width="1.4" stroke-linecap="round" opacity="0.8"/>
<path d="M330.7 198.8 v8 M326.7 202.8 h8" stroke="#e4ecff" stroke-width="1.4" stroke-linecap="round" opacity="0.8"/>
<path d="M26.5 87.4 v8 M22.5 91.4 h8" stroke="#e4ecff" stroke-width="1.4" stroke-linecap="round" opacity="0.8"/>
<path d="M318 40 l9 -22" stroke="#e4ecff" stroke-width="1" stroke-linecap="round" opacity="0.55"/>
</svg>
